<?xml version="1.0" encoding="UTF-8"?>
<svg width="100px" height="100px" viewBox="0 0 100 100" version="1.1" xmlns="http://www.w3.org/2000/svg" xmlns:xlink="http://www.w3.org/1999/xlink">
    <title>LinkedIn Alternate</title>
    <g id="LinkedIn-Alt" stroke="none" stroke-width="1" fill="none" fill-rule="evenodd">
        <path d="M50,95 C74.8528137,95 95,74.8528137 95,50 C95,25.1471863 74.8528137,5 50,5 C25.1471863,5 5,25.1471863 5,50 C5,74.8528137 25.1471863,95 50,95 Z M50,99 C22.9380473,99 1,77.0619527 1,50 C1,22.9380473 22.9380473,1 50,1 C77.0619527,1 99,22.9380473 99,50 C99,77.0619527 77.0619527,99 50,99 Z" id="LinkedIn-Oval" fill="#223642" fill-rule="nonzero"></path>
        <path d="M34.1783854,40.0117188 L34.1783854,77.4322917 L21.7174479,77.4322917 L21.7174479,40.0117188 L34.1783854,40.0117188 Z M34.9713542,28.4570312 C35.0091146,32.0442708 32.2903646,34.9140625 27.9479167,34.9140625 L27.8723958,34.9140625 C23.6809896,34.9140625 21,32.0442708 21,28.4570312 C21,24.7942708 23.7942708,22 28.0234375,22 C32.2903646,22 34.9335938,24.7942708 34.9713542,28.4570312 Z M53.4739583,45.3304686 C55.1132135,42.7679113 58.0703602,39.1432292 64.6888021,39.1432292 C72.8828125,39.1432292 79,44.5052083 79,55.984375 L79,77.4322917 L66.5768229,77.4322917 L66.5768229,57.4192708 C66.5768229,52.3971354 64.7643229,48.9609375 60.2708333,48.9609375 C56.8346354,48.9609375 54.7955729,51.2643229 53.8893229,53.4921875 C53.5872396,54.3229167 53.4739583,55.4179688 53.4739583,56.5507812 L53.4739583,77.4322917 L41.0507812,77.4322917 C41.2018229,43.5234375 41.0507812,40.0117188 41.0507812,40.0117188 L53.4739583,40.0117188 L53.4739583,45.3304686 L53.4739583,45.3304686 Z" id="LinkedIn-shape" fill="#223642" fill-rule="nonzero"></path>
    </g>
</svg>