<?xml version="1.0" encoding="UTF-8"?>
<svg width="100px" height="100px" viewBox="0 0 100 100" version="1.1" xmlns="http://www.w3.org/2000/svg" xmlns:xlink="http://www.w3.org/1999/xlink">
    <title>Twitter Alternate</title>
    <g id="Twitter-Copy-2" stroke="none" stroke-width="1" fill="none" fill-rule="evenodd">
        <path d="M50,95 C74.8528137,95 95,74.8528137 95,50 C95,25.1471863 74.8528137,5 50,5 C25.1471863,5 5,25.1471863 5,50 C5,74.8528137 25.1471863,95 50,95 Z M50,99 C22.9380473,99 1,77.0619527 1,50 C1,22.9380473 22.9380473,1 50,1 C77.0619527,1 99,22.9380473 99,50 C99,77.0619527 77.0619527,99 50,99 Z" id="Oval" fill="#000000" fill-rule="nonzero"></path>
        <path d="M79,33.5939086 C77.3807107,35.9492386 75.356599,38.0469543 73.0380711,39.7398477 C73.0748731,40.2550761 73.0748731,40.7703046 73.0748731,41.285533 C73.0748731,57 61.1142132,75.106599 39.2538071,75.106599 C32.5190355,75.106599 26.2626904,73.1560914 21,69.7703046 C21.9568528,69.8807107 22.8769036,69.9175127 23.8705584,69.9175127 C29.427665,69.9175127 34.5431472,68.0406091 38.6281726,64.8388325 C33.4022843,64.7284264 29.0228426,61.3058376 27.5139594,56.5951777 C28.25,56.7055838 28.9860406,56.7791878 29.7588832,56.7791878 C30.8261421,56.7791878 31.893401,56.6319797 32.8870558,56.3743655 C27.4403553,55.2703046 23.3553299,50.4860406 23.3553299,44.7081218 C23.3553299,44.6713198 23.3553299,44.5977157 23.3553299,44.5609137 C24.9378173,45.4441624 26.7779188,45.9961929 28.7284264,46.069797 C25.5266497,43.9352792 23.428934,40.2918782 23.428934,36.1700508 C23.428934,33.9619289 24.0177665,31.9378173 25.0482234,30.1713198 C30.8997462,37.3845178 39.6954315,42.0951777 49.5583756,42.6104061 C49.3743655,41.7271574 49.2639594,40.8071066 49.2639594,39.8870558 C49.2639594,33.3362944 54.5634518,28 61.1510152,28 C64.5736041,28 67.6649746,29.4352792 69.8362944,31.7538071 C72.5228426,31.2385787 75.0989848,30.2449239 77.3807107,28.8832487 C76.4974619,31.643401 74.6205584,33.9619289 72.1548223,35.4340102 C74.5469543,35.1763959 76.8654822,34.5139594 79,33.5939086 Z" id="twitter-alt-shape" fill="#223642"></path>
    </g>
</svg>