<?xml version="1.0" encoding="UTF-8"?>
<svg width="100px" height="100px" viewBox="0 0 100 100" version="1.1" xmlns="http://www.w3.org/2000/svg" xmlns:xlink="http://www.w3.org/1999/xlink">
    <title>Instagram Alternate</title>
    <g id="Instagram-Alt" stroke="none" stroke-width="1" fill="none" fill-rule="evenodd">
        <path d="M50,95 C74.8528137,95 95,74.8528137 95,50 C95,25.1471863 74.8528137,5 50,5 C25.1471863,5 5,25.1471863 5,50 C5,74.8528137 25.1471863,95 50,95 Z M50,99 C22.9380473,99 1,77.0619527 1,50 C1,22.9380473 22.9380473,1 50,1 C77.0619527,1 99,22.9380473 99,50 C99,77.0619527 77.0619527,99 50,99 Z" id="Oval" fill="#000000" fill-rule="nonzero"></path>
        <path d="M60.2352941,50.4264706 C60.2352941,45.0239545 55.8289867,40.6176471 50.4264706,40.6176471 C45.0239545,40.6176471 40.6176471,45.0239545 40.6176471,50.4264706 C40.6176471,55.8289867 45.0239545,60.2352941 50.4264706,60.2352941 C55.8289867,60.2352941 60.2352941,55.8289867 60.2352941,50.4264706 Z M65.3529412,50.4264706 C65.3529412,58.6852792 58.6852792,65.3529412 50.4264706,65.3529412 C42.167662,65.3529412 35.5,58.6852792 35.5,50.4264706 C35.5,42.167662 42.167662,35.5 50.4264706,35.5 C58.6852792,35.5 65.3529412,42.167662 65.3529412,50.4264706 Z M68.7647059,34.6470588 C68.7647059,36.5383632 67.2442455,38.0588235 65.3529412,38.0588235 C63.4616368,38.0588235 61.9411765,36.5383632 61.9411765,34.6470588 C61.9411765,32.7557545 63.4616368,31.2352941 65.3529412,31.2352941 C67.2442455,31.2352941 68.7647059,32.7557545 68.7647059,34.6470588 Z M50,26.1504619 C45.7600821,26.1504619 36.6745438,25.8097543 32.8510464,27.3240106 C31.5260721,27.8540004 30.5418055,28.4975593 29.5196824,29.5196824 C28.4975593,30.5418055 27.8540004,31.5260721 27.3240106,32.8510464 C25.8097543,36.6745438 26.1504619,45.7600821 26.1504619,50 C26.1504619,54.2399179 25.8097543,63.3254562 27.3240106,67.1489536 C27.8540004,68.4739279 28.4975593,69.4581945 29.5196824,70.4803176 C30.5418055,71.5024407 31.5260721,72.1459996 32.8510464,72.6759894 C36.6745438,74.1902457 45.7600821,73.8495381 50,73.8495381 C54.2399179,73.8495381 63.3254562,74.1902457 67.1489536,72.6759894 C68.4739279,72.1459996 69.4581945,71.5024407 70.4803176,70.4803176 C71.5024407,69.4581945 72.1459996,68.4739279 72.6759894,67.1489536 C74.1902457,63.3254562 73.8495381,54.2399179 73.8495381,50 C73.8495381,45.7600821 74.1902457,36.6745438 72.6759894,32.8510464 C72.1459996,31.5260721 71.5024407,30.5418055 70.4803176,29.5196824 C69.4581945,28.4975593 68.4739279,27.8540004 67.1489536,27.3240106 C63.3254562,25.8097543 54.2399179,26.1504619 50,26.1504619 Z M78.9976402,50 C78.9976402,54.0022785 79.0353975,57.9667996 78.8088534,61.969078 C78.5823094,66.6132313 77.5251038,70.7287818 74.1269428,74.1269428 C70.7287818,77.5251038 66.6132313,78.5823094 61.969078,78.8088534 C57.9667996,79.0353975 54.0022785,78.9976402 50,78.9976402 C45.9977215,78.9976402 42.0332004,79.0353975 38.030922,78.8088534 C33.3867687,78.5823094 29.2712182,77.5251038 25.8730572,74.1269428 C22.4748962,70.7287818 21.4176906,66.6132313 21.1911466,61.969078 C20.9646025,57.9667996 21.0023598,54.0022785 21.0023598,50 C21.0023598,45.9977215 20.9646025,42.0332004 21.1911466,38.030922 C21.4176906,33.3867687 22.4748962,29.2712182 25.8730572,25.8730572 C29.2712182,22.4748962 33.3867687,21.4176906 38.030922,21.1911466 C42.0332004,20.9646025 45.9977215,21.0023598 50,21.0023598 C54.0022785,21.0023598 57.9667996,20.9646025 61.969078,21.1911466 C66.6132313,21.4176906 70.7287818,22.4748962 74.1269428,25.8730572 C77.5251038,29.2712182 78.5823094,33.3867687 78.8088534,38.030922 C79.0353975,42.0332004 78.9976402,45.9977215 78.9976402,50 Z" id="instagram-alt-Shape" fill="#223642"></path>
    </g>
</svg>