<?xml version="1.0" encoding="UTF-8"?>
<svg width="100px" height="100px" viewBox="0 0 100 100" version="1.1" xmlns="http://www.w3.org/2000/svg" xmlns:xlink="http://www.w3.org/1999/xlink">
    <title>LinkedIn</title>
    <g id="LinkedIn-Copy" stroke="none" stroke-width="1" fill="none" fill-rule="evenodd">
        <path d="M50,99 C22.9380473,99 1,77.0619527 1,50 C1,22.9380473 22.9380473,1 50,1 C77.0619527,1 99,22.9380473 99,50 C99,77.0619527 77.0619527,99 50,99 Z M34.1783854,40.0117188 L21.7174479,40.0117188 L21.7174479,77.4322917 L34.1783854,77.4322917 L34.1783854,40.0117188 Z M34.9713542,28.4570312 C34.9335938,24.7942708 32.2903646,22 28.0234375,22 C23.7942708,22 21,24.7942708 21,28.4570312 C21,32.0442708 23.6809896,34.9140625 27.8723958,34.9140625 L27.9479167,34.9140625 C32.2903646,34.9140625 35.0091146,32.0442708 34.9713542,28.4570312 Z M53.4739583,45.3304686 L53.4739583,40.0117188 L41.0507812,40.0117188 C41.0507812,40.0117188 41.2018229,43.5234375 41.0507812,77.4322917 L53.4739583,77.4322917 L53.4739583,56.5507812 C53.4739583,55.4179688 53.5872396,54.3229167 53.8893229,53.4921875 C54.7955729,51.2643229 56.8346354,48.9609375 60.2708333,48.9609375 C64.7643229,48.9609375 66.5768229,52.3971354 66.5768229,57.4192708 L66.5768229,77.4322917 L79,77.4322917 L79,55.984375 C79,44.5052083 72.8828125,39.1432292 64.6888021,39.1432292 C58.0703602,39.1432292 55.1132135,42.7679113 53.4739583,45.3304686 Z" id="LinkedIn-Shape" fill="#223642" ></path>
    </g>
</svg>